<svg width="155" height="51" viewBox="0 0 155 51" fill="none" xmlns="http://www.w3.org/2000/svg">
<path d="M91.3622 50.2799C91.1919 49.9563 90.9194 49.6497 90.8683 49.3261C90.6469 47.8442 90.4936 46.3624 90.3062 44.8806C89.9485 42.1043 89.5057 39.328 89.2332 36.5347C89.0288 34.4737 89.0288 32.3958 88.9266 30.3178C88.9266 30.2667 88.9095 30.2156 88.8755 30.1134C88.7222 30.1305 88.5519 30.1305 88.3986 30.1986C87.2063 30.6414 86.0992 31.2205 85.1454 32.0892C84.941 32.2766 84.7536 32.4809 84.6344 32.7194C84.4641 33.0771 84.2426 33.043 84.0383 32.8386C83.2888 32.0892 82.9993 31.5782 83.8339 30.6585C84.6003 29.8239 85.6223 29.364 86.6613 28.9723C88.7563 28.1547 90.9364 27.7459 93.1847 27.7459C94.5984 27.7459 95.961 28.0355 97.1192 28.9382C98.3285 29.875 98.601 30.9821 97.9368 32.3617C97.2725 33.7243 96.2165 34.7633 95.0242 35.666C93.9171 36.4836 92.7759 37.2671 91.6347 38.0335C91.226 38.3061 91.0897 38.6297 91.1578 39.1066C91.4474 41.0653 91.7199 43.0411 92.0095 45.0168C92.1627 46.0729 92.3842 47.1289 92.5375 48.1849C92.6397 48.9513 92.5886 49.7178 91.9754 50.3139C91.771 50.2799 91.5666 50.2799 91.3622 50.2799ZM90.8683 36.1089C91.0045 36.0748 91.0727 36.0578 91.1238 36.0237C92.2309 35.2402 93.3891 34.4908 94.4281 33.6392C95.0923 33.0941 95.6544 32.4128 96.1313 31.6975C96.7104 30.8118 96.506 30.3349 95.5352 29.909C95.4841 29.892 95.433 29.875 95.3989 29.8579C94.0023 29.3299 92.5545 29.3981 91.1238 29.6706C91.0045 29.6876 90.8683 29.909 90.8512 30.0453C90.6469 32.0381 90.6809 34.0309 90.8683 36.1089Z" fill="#DC6E56"/>
<path d="M0 24.5268C0.0851624 24.2713 0.153295 24.0158 0.25549 23.7774C0.510977 23.0961 1.20931 22.8746 1.78842 23.3175C2.41862 23.8114 3.08288 23.9477 3.8834 23.8455C4.58173 23.7603 5.33117 23.7433 5.99544 23.9136C8.48218 24.5097 9.69149 27.2179 8.61844 29.6706C8.58438 29.6706 8.53327 29.6876 8.51624 29.6876C7.66462 28.9382 6.72783 28.836 5.62072 29.1085C4.01967 29.5003 2.52081 29.1255 1.17525 28.1888C1.14118 28.1547 1.09008 28.1206 1.05602 28.0866C1.07305 28.1377 1.09008 28.1888 1.10711 28.2399C1.70325 29.7387 3.57683 30.6414 5.26304 30.1816C6.37015 29.892 7.3921 29.9431 8.27779 30.7096C9.18051 31.4931 9.45304 32.515 9.23161 33.6562C9.14645 34.082 8.90799 34.1161 8.58437 33.8946C8.15856 33.5881 7.66461 33.5199 7.17067 33.6732C6.35311 33.9287 5.53556 33.9968 4.718 33.7584C4.64987 33.7413 4.56471 33.7584 4.42845 33.7754C4.71801 34.2523 5.16084 34.4226 5.60369 34.4567C6.0295 34.5078 6.48938 34.4737 6.9152 34.3715C8.39702 34.082 9.81071 35.3084 9.55522 36.705C9.47006 37.1479 9.3338 37.1989 8.89096 37.0627C8.55031 36.9605 8.17559 36.9605 7.80088 36.9605C7.32397 36.9605 6.83002 37.0116 6.26795 37.0457C6.76189 37.5396 7.28991 37.4715 7.83495 37.3522C8.70361 37.1649 9.47006 37.6418 9.64039 38.4934C9.69149 38.7148 9.65742 38.9703 9.62335 39.1917C9.57226 39.6176 9.29974 39.7198 8.89096 39.6516C8.43108 39.5835 7.97121 39.5494 7.51133 39.4983C7.4943 39.5494 7.47726 39.6175 7.47726 39.6686C7.78384 39.7538 8.09043 39.873 8.39701 39.9412C9.43599 40.2137 9.79368 40.8269 9.47007 41.8488C9.36787 42.1724 9.19754 42.2576 8.90799 42.1554C8.32889 41.951 7.98824 41.5593 7.86901 40.878C8.53328 40.8269 8.39702 41.8147 9.04426 41.6955C9.31678 40.895 9.12941 40.5543 8.29482 40.3329C8.09043 40.2818 7.88604 40.2477 7.69869 40.1967C6.98332 39.9752 6.54047 39.1406 6.7619 38.4423C6.79596 38.3571 6.89816 38.289 6.98333 38.2039C7.06849 38.289 7.22178 38.3912 7.22178 38.4764C7.20475 39.0044 7.52837 39.0896 7.95418 39.1236C8.34592 39.1407 8.73767 39.1747 9.16348 39.1917C9.45303 38.8511 9.29974 38.4764 9.07831 38.1528C8.82283 37.778 8.43109 37.6758 7.95418 37.7269C7.46024 37.761 6.91519 37.8121 6.47235 37.6588C5.5015 37.3182 5.07569 36.3984 5.28008 35.121C5.46744 35.2913 5.65479 35.3935 5.68885 35.5298C5.87621 36.2622 6.21686 36.5687 6.96629 36.5858C7.27288 36.5858 7.56243 36.5006 7.86901 36.5006C8.26076 36.5006 8.63548 36.5347 9.04426 36.5517C9.31678 35.7682 8.60141 34.7974 7.63056 34.7292C7.341 34.7122 7.05145 34.7633 6.77893 34.8314C4.73503 35.2743 2.8785 33.554 3.20211 31.476C3.21915 31.3398 3.28728 31.2205 3.38947 30.914C3.52573 31.1865 3.67902 31.3227 3.67902 31.459C3.67902 32.7535 4.24109 33.3666 5.55259 33.4177C5.96137 33.4348 6.37015 33.4177 6.7619 33.3155C7.76681 33.0771 7.88604 33.0601 8.82282 33.4518C9.29973 32.2595 8.29482 30.5052 6.74486 30.42C6.11466 30.386 5.46743 30.5563 4.83723 30.6414C2.98069 30.8458 1.14118 29.7047 0.51098 27.9162C0.340655 27.4223 0.187361 26.9284 0.0170361 26.4344C3.63891e-06 25.8212 0 25.174 0 24.5268ZM8.39701 29.0744C9.2827 26.3833 7.06848 23.7433 4.37735 24.1861C3.32133 24.3565 2.36752 24.3565 1.49887 23.6241C1.19228 23.3515 0.834594 23.4878 0.681302 23.8795C0.102197 25.4295 0.30659 27.4053 2.21423 28.308C3.25321 28.8019 4.36032 29.0063 5.48446 28.7168C6.50641 28.4442 7.46023 28.4102 8.39701 29.0744ZM6.21686 36.9435C6.19982 36.9435 6.19983 36.9264 6.1828 36.9264C6.1828 36.9434 6.1828 36.9605 6.1828 36.9775C6.19983 36.9775 6.19982 36.9775 6.21686 36.9605C6.21686 36.9605 6.21686 36.9605 6.21686 36.9435Z" fill="#DC6E56"/>
<path d="M23.8114 0C23.8966 0.0851624 23.9647 0.170327 24.0499 0.25549C24.4757 0.664269 24.4927 1.29447 24.0839 1.72028C23.6751 2.12906 23.0279 2.12906 22.6362 1.70325C22.2614 1.29447 22.2955 0.630214 22.7384 0.238467C22.8235 0.153304 22.9087 0.085166 23.0109 0.0170361C23.2664 3.63891e-06 23.5389 0 23.8114 0ZM23.3685 0.408789C23.0109 0.442854 22.7895 0.647245 22.7895 1.02196C22.7895 1.39667 23.0279 1.60106 23.3515 1.60106C23.7092 1.60106 23.9477 1.37963 23.9477 0.987887C23.9306 0.613172 23.7262 0.442854 23.3685 0.408789Z" fill="#DC6E56"/>
<path d="M37.0456 35.1039C38.4252 32.7875 40.0433 30.7436 40.8268 28.2398C41.3889 26.4344 41.6785 24.5608 41.2526 22.7043C40.895 21.1203 40.1796 20.8988 38.8851 21.2054C38.6467 21.2565 38.4253 21.3076 38.1868 21.3758C36.3643 21.8867 34.627 22.6191 33.043 23.6751C32.4809 24.0499 31.987 24.4757 31.7315 25.1229C31.5782 25.5146 31.3568 25.4976 31.0843 25.2251C30.5733 24.7312 30.4711 24.1521 30.7777 23.5048C30.8458 23.3515 30.931 23.2153 31.0332 23.062C30.2156 22.9427 29.8579 22.6191 29.8579 22.023C29.8579 21.512 30.2497 21.0862 30.7777 21.0351C31.3738 20.967 31.7315 21.3247 31.9359 22.1763C32.004 22.1422 32.0892 22.1252 32.1573 22.0911C34.4908 20.5412 37.1308 19.8258 39.8389 19.3489C40.912 19.1615 41.8658 19.7747 42.479 20.8818C43.2114 22.2103 43.2114 23.6411 43.0922 25.1059C42.8367 28.2398 41.5422 30.9821 39.9922 33.6562C39.5324 34.4567 39.1917 35.3424 38.8511 36.194C38.6637 36.6709 38.3571 36.9094 37.744 36.9094C38.272 37.7951 38.7659 38.5956 39.2598 39.4132C39.6857 40.1456 40.1285 40.878 40.5373 41.6274C40.7076 41.951 40.8268 42.3087 40.912 42.6834C41.0653 43.2966 40.6224 43.9438 39.9752 43.9778C39.856 43.9778 39.6346 43.8586 39.6005 43.7394C39.0725 41.8488 37.8462 40.3329 36.8923 38.6637C35.4957 36.2281 34.2864 33.7243 33.7073 30.965C33.2985 29.0233 33.2303 27.0476 33.4518 25.0718C33.4688 24.9185 33.5029 24.7652 33.5369 24.629C33.6562 24.1861 33.9287 23.9647 34.3886 24.0158C34.8484 24.0669 34.9336 24.4075 34.9506 24.7993C35.0528 26.2641 35.0869 27.7289 35.2742 29.1766C35.5468 31.1865 36.0748 33.1622 37.0456 35.1039ZM31.0502 22.6362C31.1524 22.4829 31.3738 22.2785 31.4419 22.023C31.5271 21.7334 31.1354 21.3758 30.8288 21.4269C30.4881 21.4779 30.2497 21.6653 30.2497 22.023C30.2667 22.4147 30.5052 22.6021 31.0502 22.6362Z" fill="#DC6E56"/>
<path d="M105.67 36.5688C105.431 36.9264 105.227 37.2501 105.005 37.5737C104.596 38.1357 104.222 38.7319 103.762 39.2429C102.927 40.1456 102.127 39.9923 101.633 38.8681C101.071 37.6077 100.866 36.2962 101.173 34.8996C101.616 32.8727 102.195 30.914 103.455 29.2278C103.881 28.6487 104.443 28.2569 105.193 28.2058C105.653 28.1717 105.908 28.3932 105.976 28.819C106.027 29.2618 106.01 29.7047 106.078 30.1305C106.112 30.3178 106.249 30.5393 106.402 30.6244C107.1 30.9821 107.219 31.2546 107.202 32.0211C107.168 32.8898 107.168 33.7925 107.305 34.6611C107.713 37.2671 109.553 38.3742 112.159 37.9995C114.186 37.7099 115.531 36.4155 116.724 34.8996C117.013 34.5249 117.252 34.099 117.575 33.7584C117.729 33.5881 118.035 33.571 118.274 33.4859C118.359 33.7243 118.512 33.9628 118.495 34.1842C118.376 35.138 117.831 35.8875 117.252 36.5858C115.94 38.1698 114.305 39.328 112.295 39.822C109.553 40.5033 106.691 39.0214 105.67 36.5688ZM103.387 37.4033C103.779 36.5517 104.12 35.8023 104.443 35.0358C104.886 33.9798 105.363 32.9068 104.988 31.7145C104.971 31.6464 105.039 31.5442 105.022 31.476C105.022 31.2717 104.988 31.0843 104.988 30.8799C104.818 30.9821 104.631 31.0843 104.46 31.2035C104.375 31.2546 104.324 31.3568 104.29 31.459C103.864 32.5321 103.387 33.571 103.029 34.6611C102.74 35.5468 102.91 36.4495 103.387 37.4033Z" fill="#DC6E56"/>
<path d="M51.5233 36.5517C51.2678 36.9434 51.0634 37.3011 50.825 37.6248C50.3821 38.2209 49.9733 38.8511 49.4623 39.3961C48.7981 40.0774 48.0487 39.9412 47.6058 39.1066C46.9245 37.7951 46.7031 36.4325 47.0097 34.9677C47.4355 32.9408 48.0146 30.9821 49.275 29.2788C49.7008 28.6997 50.2458 28.2909 50.9953 28.2228C51.4722 28.1717 51.7617 28.3761 51.8128 28.836C51.8639 29.2618 51.8469 29.6876 51.915 30.0964C51.9491 30.2838 52.0854 30.5392 52.2387 30.6244C52.937 30.9821 53.0562 31.2376 53.0221 32.0211C52.9881 32.8897 52.971 33.7924 53.1243 34.6611C53.5672 37.3352 55.3897 38.3231 57.9275 37.9995C59.784 37.761 61.0785 36.6369 62.2197 35.2913C62.6285 34.8144 62.935 34.2523 63.3609 33.7924C63.5142 33.6221 63.8378 33.588 64.0933 33.4858C64.1614 33.7413 64.3658 34.0479 64.2976 34.2353C63.957 35.0017 63.6504 35.8193 63.1394 36.4665C61.7428 38.2379 59.9544 39.4813 57.7061 39.9241C55.3386 40.384 52.6645 39.0044 51.6595 36.8072C51.6255 36.7561 51.5914 36.688 51.5233 36.5517ZM49.1558 37.2671C49.2069 37.2841 49.258 37.2841 49.3261 37.3011C49.786 36.211 50.2969 35.138 50.6887 34.0309C50.9442 33.3155 51.1315 32.5661 50.8931 31.7826C50.859 31.6634 50.9271 31.5101 50.9271 31.3909C50.9271 31.2205 50.876 31.0502 50.859 30.8799C50.7057 30.965 50.5184 30.9991 50.3991 31.1183C50.2288 31.2887 50.1096 31.4931 49.9904 31.6975C49.3772 32.7875 48.9684 33.9628 48.781 35.1891C48.6618 35.9385 48.8662 36.6198 49.1558 37.2671Z" fill="#DC6E56"/>
<path d="M142.085 36.5858C141.71 37.1649 141.404 37.7099 141.012 38.2209C140.671 38.6808 140.314 39.1577 139.871 39.5154C139.223 40.0434 138.61 39.9071 138.219 39.1747C137.554 37.9484 137.265 36.6369 137.52 35.2402C137.895 33.1793 138.474 31.2035 139.683 29.4662C140.16 28.7849 140.739 28.2228 141.659 28.2058C142.051 28.1888 142.289 28.3591 142.34 28.7338C142.392 29.1767 142.443 29.6195 142.426 30.0453C142.409 30.403 142.545 30.5904 142.868 30.6755C143.413 30.8118 143.567 31.1865 143.567 31.7145C143.584 32.7535 143.516 33.8095 143.703 34.8144C144.214 37.4204 146.002 38.3401 148.54 37.9995C150.465 37.744 151.793 36.5347 152.935 35.104C153.258 34.7122 153.531 34.2694 153.837 33.8606C154.025 33.6051 154.246 33.2985 154.638 33.4859C155.013 33.6732 154.944 34.0479 154.842 34.3375C154.723 34.7463 154.57 35.1551 154.348 35.5127C152.969 37.744 151.027 39.2769 148.438 39.873C145.917 40.4521 143.328 39.1407 142.187 36.8242C142.204 36.7561 142.17 36.688 142.085 36.5858ZM139.734 37.2671C139.803 37.2841 139.871 37.3011 139.939 37.3182C140.433 36.0237 140.961 34.7463 141.421 33.4348C141.557 33.009 141.506 32.5321 141.54 32.0722C141.557 31.8167 141.557 31.5442 141.54 31.2887C141.523 31.1524 141.472 31.0162 141.438 30.8799C141.301 30.931 141.131 30.948 141.046 31.0502C140.876 31.2376 140.705 31.442 140.603 31.6634C140.194 32.7194 139.769 33.7754 139.428 34.8485C139.172 35.6831 139.394 36.5006 139.734 37.2671Z" fill="#DC6E56"/>
<path d="M77.9577 40.9802C76.1182 40.9461 74.8407 40.0264 74.0061 38.4594C72.7968 36.16 72.865 33.7755 73.6314 31.3739C73.921 30.4882 74.3468 29.6025 74.8918 28.819C76.1522 26.9965 77.5489 26.6899 79.6268 28.1888C79.8142 28.3251 79.9845 28.5124 80.1378 28.6827C80.8532 29.4833 80.9043 30.2838 80.24 31.1184C79.3543 32.2425 78.1961 33.009 76.8335 33.4518C76.4929 33.5711 76.1182 33.6392 75.8797 33.2304C75.6583 32.8557 75.7094 32.3788 76.0841 32.0722C76.3907 31.8338 76.7484 31.6464 77.072 31.459C77.4467 31.2547 77.8384 31.0673 78.1791 30.8459C78.7582 30.4712 78.9115 29.9602 78.656 29.5173C78.4175 29.1256 77.634 28.9212 77.1912 29.2448C76.6973 29.6195 76.2204 30.0624 75.8967 30.5904C74.9259 32.0892 74.5001 33.7755 74.7726 35.5468C75.2154 38.5105 78.2302 39.7879 80.223 38.8511C80.9554 38.4935 81.6878 38.1528 82.4202 37.7951C82.6927 37.6589 82.9652 37.4374 83.2377 37.7611C83.5103 38.0676 83.4251 38.4083 83.1866 38.6297C82.6246 39.1577 82.0625 39.7368 81.3982 40.1116C80.3933 40.7247 79.201 40.9802 77.9577 40.9802Z" fill="#DC6E56"/>
<path d="M31.5612 5.45039C31.8507 5.33116 32.1232 5.14381 32.4298 5.09271C32.9238 5.00755 33.4347 4.88832 33.9117 4.97348C34.593 5.07568 35.2572 5.33116 35.9045 5.55258C36.3303 5.70587 36.6709 5.97839 36.7901 6.4553C36.8242 6.59156 36.9945 6.69376 37.1308 6.77892C37.6247 7.1366 38.1527 7.46021 38.6126 7.85196C38.9703 8.15855 39.1236 8.58436 39.0384 9.09534C39.0044 9.24863 39.1236 9.43599 39.1917 9.58928C39.4813 10.2025 39.8219 10.7816 40.0604 11.4118C40.1626 11.6672 40.1455 12.076 40.0093 12.2974C39.7368 12.7403 39.7708 13.1661 39.8049 13.643C39.839 14.0348 39.7879 14.4606 39.7027 14.8523C39.5835 15.3974 39.2428 15.7721 38.6807 15.9594C36.5687 16.6407 34.4567 17.3391 32.3276 18.0374C31.3738 18.344 31.1183 18.2588 30.4541 17.5264C29.0915 16.0105 27.6948 14.5117 26.3152 13.0128C25.3614 11.9738 25.2762 11.2585 26.0767 10.0662C26.3492 9.65741 26.5366 9.26566 26.5877 8.73766C26.6217 8.32888 26.9794 7.90306 27.286 7.56241C27.5074 7.30693 27.8651 7.13661 28.1717 6.98331C28.5635 6.77892 29.0233 6.74485 29.1255 6.14871C29.1596 5.94432 29.5343 5.7229 29.7898 5.65477C30.3348 5.48445 30.9139 5.39929 31.476 5.28007C31.5101 5.33116 31.5271 5.38226 31.5612 5.45039ZM36.4325 6.54047C36.2962 6.38717 36.1599 6.14872 35.9555 6.04652C35.0528 5.56961 34.099 5.31413 33.0771 5.31413C32.7024 5.31413 32.4809 5.46742 32.4639 5.8762C32.3958 7.01738 32.2765 8.14152 32.1914 9.2827C32.0381 11.3777 31.8848 13.4897 31.7485 15.5847C31.7315 15.738 31.8337 15.8913 31.8678 16.0446C31.987 15.9254 32.1743 15.8402 32.2254 15.7039C33.571 12.8084 34.8995 9.91289 36.2281 7.00034C36.3132 6.88111 36.3473 6.76189 36.4325 6.54047ZM32.0551 5.84213C31.3568 5.62071 30.7095 5.77401 30.0793 5.94433C29.5002 6.09762 29.381 6.37014 29.4832 6.96628C29.909 9.2827 30.3348 11.6161 30.7777 13.9326C30.8969 14.5968 31.0332 15.2441 31.1694 15.9083C31.2205 15.9083 31.2716 15.9083 31.3227 15.8913C31.5612 12.57 31.7996 9.24862 32.0551 5.84213ZM36.739 6.91518C35.2742 10.1173 33.8776 13.1491 32.4809 16.1808C32.6172 16.2149 32.6683 16.1979 32.7024 16.1638C34.627 13.8304 36.5687 11.514 38.4934 9.18051C38.8 8.80579 38.6807 8.44811 38.3912 8.19262C37.8802 7.74977 37.3352 7.37506 36.739 6.91518ZM29.0574 6.91518C28.4272 7.32396 27.8651 7.63054 27.3712 8.03932C26.8772 8.4481 26.8261 8.94205 27.1157 9.52115C28.1717 11.5821 29.2277 13.626 30.3008 15.6869C30.3689 15.8061 30.5052 15.8913 30.6074 15.9935C30.6414 15.9765 30.6925 15.9424 30.7266 15.9254C30.1815 12.9787 29.6535 10.0492 29.0574 6.91518ZM38.7829 9.48708C36.7561 11.9398 34.8825 14.2221 32.9919 16.5045C33.026 16.5556 33.0771 16.6067 33.1111 16.6578C33.2304 16.6067 33.3666 16.5556 33.4688 16.4874C35.3764 15.227 37.2841 13.9496 39.2088 12.6892C39.6857 12.3826 39.873 11.9227 39.6857 11.4118C39.4472 10.7986 39.1236 10.2024 38.7829 9.48708ZM26.8432 9.84477C26.7921 9.82774 26.741 9.8107 26.6899 9.8107C26.4685 10.2706 26.23 10.7305 26.0426 11.2074C25.8553 11.6502 26.0086 12.0249 26.3322 12.3656C27.4052 13.5238 28.4613 14.699 29.5343 15.8572C29.6365 15.9594 29.8068 16.0105 29.9431 16.0957C29.9771 16.0616 29.9942 16.0276 30.0283 15.9935C28.9552 13.9496 27.8992 11.8887 26.8432 9.84477ZM33.554 16.9303C33.571 16.9814 33.571 17.0495 33.588 17.1006C33.7584 17.0836 33.9457 17.0665 34.099 17.0154C35.4957 16.5556 36.9094 16.0957 38.306 15.6358C39.328 15.2952 39.7879 14.137 39.2769 13.115C37.4544 14.3073 35.649 15.5166 33.8265 16.7089C33.7413 16.794 33.6391 16.8621 33.554 16.9303ZM30.1475 16.4363C31.476 18.1225 31.3057 18.0204 33.2133 17.2539C32.3447 16.4363 31.3398 16.2149 30.1475 16.4363Z" fill="#DC6E56"/>
<path d="M65.0811 18.7868C65.6943 18.8209 65.9157 19.1104 66.0009 19.4681C66.2393 20.3708 66.5289 21.2736 66.597 22.1933C67.0228 28.1888 68.1129 34.082 69.6288 39.8901C69.6969 40.1285 69.731 40.384 69.7991 40.6395C69.9013 40.9972 69.8502 41.2867 69.4755 41.44C69.1178 41.5933 68.7772 41.5252 68.5898 41.1845C68.3173 40.6736 68.0448 40.1626 67.8404 39.6346C66.9206 37.0797 66.3075 34.4567 65.9327 31.7826C65.4388 28.2398 65.03 24.6801 64.6213 21.1203C64.5531 20.5241 64.6213 19.8939 64.7064 19.2978C64.7405 19.0764 64.996 18.889 65.0811 18.7868Z" fill="#DC6E56"/>
<path d="M21.8697 15.5336C21.3247 15.8743 20.7626 16.232 20.2687 16.5556C20.5923 16.6918 21.0011 16.8622 21.3928 17.0666C21.7846 17.2709 21.8016 17.5775 21.478 17.816C20.4049 18.5995 19.1616 18.7698 17.8841 18.7187C17.3902 18.7017 16.8622 18.6335 16.3853 18.4632C15.9254 18.3099 15.4996 18.0544 15.1078 17.7649C14.8013 17.5264 14.9545 17.2369 15.2441 17.0836C15.6529 16.8792 16.0787 16.7089 16.4704 16.5215C16.1468 16.3682 15.7721 16.2149 15.4485 16.0276C14.8694 15.6869 14.5458 15.176 14.4436 14.5117C14.4095 14.2732 14.3073 14.0177 14.1881 13.8133C13.643 12.9617 13.6601 11.9057 14.2392 11.0882C14.3414 10.9349 14.4776 10.7645 14.4947 10.5942C14.5969 9.52116 15.6018 8.92504 16.4534 8.80581C16.6408 8.77174 16.8451 8.7036 16.9814 8.58438C17.799 7.90308 18.8209 7.90309 19.6385 8.56735C19.7918 8.68658 20.0132 8.77174 20.2176 8.78877C21.1373 8.89097 21.9038 9.57227 22.1252 10.458C22.1934 10.6964 22.2955 10.9349 22.4148 11.1392C22.8406 11.8887 22.9598 12.6551 22.6362 13.4727C22.4148 14.0518 22.2444 14.6479 22.0571 15.227C22.023 15.2952 21.989 15.3633 21.9549 15.4314C21.9379 15.4655 21.9038 15.5166 21.8697 15.5336ZM21.3588 9.91291C21.3247 9.87884 21.2906 9.84478 21.2566 9.81072C20.9159 9.5893 20.5923 9.36788 20.1665 9.09536C20.2176 9.60633 20.2857 9.96401 20.2687 10.3047C20.1665 11.9568 19.8429 13.5579 19.2808 15.1249C19.2638 15.176 19.2467 15.227 19.2297 15.2781C19.2638 15.2441 19.3149 15.21 19.3489 15.176C20.439 14.137 21.3417 12.9447 21.6994 11.4458C21.8016 10.986 21.8527 10.492 21.495 10.1003C21.461 10.0321 21.4099 9.96401 21.3588 9.91291ZM19.8429 15.4485C20.5242 14.9886 21.1884 14.5287 22.006 13.9666C21.3588 13.6771 21.7164 13.4386 21.8186 13.2002C21.9208 12.9447 21.9208 12.5018 22.0912 12.4167C22.7724 12.0931 22.1933 11.8035 22.2104 11.6162C21.8357 12.3145 21.478 13.098 21.0181 13.8304C20.6775 14.3925 20.2176 14.8694 19.8088 15.3974C19.7918 15.4314 19.7918 15.4655 19.7747 15.4996C19.7918 15.4996 19.8088 15.4655 19.8429 15.4485ZM16.8281 15.4655C16.8622 15.4655 16.8962 15.4825 16.9473 15.4825C16.9303 15.4655 16.9133 15.4314 16.8792 15.4144C15.9084 14.2392 14.9034 13.098 14.5117 11.4288C14.1029 12.2293 14.0859 12.8936 14.5117 13.5238C15.0908 14.4095 15.8913 15.0227 16.8281 15.4655ZM17.2199 15.0738C17.271 15.1078 17.305 15.1419 17.3561 15.176C17.3391 15.1249 17.3221 15.0567 17.305 15.0056C16.7259 13.1321 16.1979 11.2414 16.4364 9.24864C15.3293 9.35084 14.665 10.3217 14.9545 11.514C15.3122 12.9617 16.1638 14.0859 17.2199 15.0738ZM18.7187 15.3803C19.4511 13.7112 19.8429 11.9568 19.8429 10.1173C19.8429 9.14645 19.1275 8.43109 18.2248 8.49922C17.3391 8.56735 16.6748 9.40194 16.777 10.3217C16.8452 10.8497 16.8962 11.3607 16.9644 11.8887C17.1347 13.098 17.4413 14.2732 17.9523 15.3803C18.2077 15.3803 18.4462 15.3803 18.7187 15.3803ZM19.0253 16.5386C19.0253 16.1468 18.7528 15.8573 18.361 15.8573C17.9352 15.8402 17.6797 16.0787 17.6627 16.4874C17.6627 16.9473 17.9012 17.2028 18.327 17.2028C18.7187 17.2028 19.0083 16.9303 19.0253 16.5386ZM19.2127 18.2588C19.1105 17.3561 18.5143 17.5435 18.0885 17.5946C17.833 17.6286 17.5946 17.8671 17.3561 18.0204C17.3902 18.1055 17.4072 18.1737 17.4413 18.2588C18.0204 18.2588 18.5995 18.2588 19.2127 18.2588ZM21.7164 14.7331C21.0181 15.21 20.3368 15.6699 19.6725 16.1298C20.6945 16.0616 21.512 15.5166 21.7164 14.7331ZM16.9984 16.1127C16.3342 15.6529 15.6529 15.21 14.8864 14.682C15.2952 15.704 16.0957 15.9595 16.9984 16.1127ZM15.9765 17.816C16.6408 18.3781 17.2028 18.0715 17.4413 17.1006C16.9133 17.3561 16.4534 17.5946 15.9765 17.816ZM20.6775 17.799C20.1835 17.5605 19.7236 17.3561 19.1616 17.0836C19.6385 18.1737 19.9621 18.327 20.6775 17.799ZM15.4144 17.3902C15.4485 17.4583 15.4655 17.5264 15.4996 17.5946C15.9595 17.3902 16.4364 17.1688 16.8963 16.9644C16.8792 16.9133 16.8622 16.8792 16.8451 16.8281C16.3682 17.0155 15.8913 17.2028 15.4144 17.3902ZM21.1544 17.6116C21.1884 17.5435 21.2055 17.4753 21.2395 17.4072C20.8648 17.2539 20.4901 17.1006 20.1154 16.9473C20.0984 16.9984 20.0813 17.0495 20.0473 17.1006C20.422 17.2539 20.7797 17.4413 21.1544 17.6116ZM19.894 16.9303C19.8769 16.9133 19.8769 16.8962 19.8599 16.8962C19.8258 16.8962 19.8088 16.9133 19.7747 16.9133C19.7918 16.9303 19.7918 16.9473 19.8088 16.9473C19.8429 16.9473 19.8599 16.9303 19.894 16.9303Z" fill="#DC6E56"/>
<path d="M8.92507 21.8356C8.51629 21.6653 8.02233 21.4609 7.47729 21.2395C7.76685 19.945 8.43111 18.9231 9.419 18.0885C9.47009 18.0374 9.60636 17.9863 9.64043 18.0204C10.0151 18.327 10.2877 17.9863 10.6113 17.9182C11.4118 17.7479 12.2464 17.5946 13.064 17.4753C13.1662 17.4583 13.3024 17.5946 13.4046 17.6797C13.626 17.8671 13.7964 18.1055 14.0348 18.2759C14.4947 18.6335 15.0057 18.9231 15.4144 19.3148C15.8062 19.6896 16.1639 20.0643 16.0957 20.7456C16.0446 21.2565 16.3172 21.8016 16.3853 22.3296C16.4364 22.7213 16.4023 23.1471 16.3853 23.5389C16.3853 23.6411 16.3342 23.7774 16.2661 23.8625C15.5507 24.5949 14.8524 25.3443 14.12 26.0597C13.9326 26.2471 13.6771 26.4515 13.3535 26.1789C13.2854 26.1278 13.098 26.23 12.9788 26.23C12.3656 26.2471 11.7354 26.2641 11.1222 26.23C10.986 26.23 10.8838 25.9745 10.7646 25.8383C10.6624 25.7361 10.5942 25.6169 10.475 25.5147C10.1684 25.2421 9.84482 24.9867 9.5723 24.7141C9.35087 24.4927 9.06132 24.2713 9.38494 23.8966C9.419 23.8625 9.35087 23.7092 9.33384 23.607C9.18055 23.062 9.06133 22.4999 8.92507 21.8356ZM13.4727 25.5828C13.5068 25.6169 13.5409 25.6509 13.5749 25.685C13.592 25.7191 13.609 25.7702 13.626 25.8042C13.6431 25.7872 13.6771 25.7531 13.6771 25.7531C13.6601 25.7191 13.626 25.685 13.592 25.6509C13.5579 25.6169 13.5409 25.5658 13.5068 25.5317C13.4727 25.4976 13.4557 25.4465 13.4216 25.4125C13.4046 25.3443 13.3705 25.2762 13.3705 25.2251C13.3535 25.0718 13.3535 24.9185 13.3535 24.7823C13.4727 24.8674 13.609 24.9356 13.6942 25.0548C13.8304 25.2081 13.9326 25.3954 14.12 25.6509C14.5287 25.1911 14.9035 24.7993 15.3122 24.3394C14.4095 24.1861 13.592 23.6752 12.9107 24.663C13.0299 24.8845 13.2002 25.174 13.3705 25.4806C13.4046 25.4976 13.4387 25.5487 13.4727 25.5828ZM9.89592 24.101C9.84482 24.1521 9.77668 24.2032 9.72558 24.2372C9.74261 24.2543 9.75966 24.2713 9.77669 24.3054C9.82779 24.2543 9.89592 24.2032 9.94701 24.1521C10.0151 24.118 10.0662 24.0669 10.1344 24.0328C10.2706 24.0839 10.4069 24.118 10.5942 24.1861C10.3728 24.3905 10.2195 24.5268 10.0151 24.6971C10.3047 24.9015 10.5261 25.0889 10.7986 25.2762C10.9519 24.9867 11.0541 24.7312 11.2244 24.5098C11.5481 24.101 11.4629 23.7773 11.003 23.4878C10.7135 23.6411 10.4069 23.8114 10.0833 23.9817C10.0322 24.0328 9.96405 24.0669 9.89592 24.101ZM9.419 21.5802C9.81074 20.967 10.0151 20.2687 10.8157 20.1324C10.7646 20.0132 10.7135 19.8769 10.6624 19.7236C10.492 19.7577 10.3558 19.8088 10.2366 19.8428C9.91294 19.4852 9.6234 19.1445 9.28275 18.7528C8.63551 19.417 8.17563 20.1324 7.93718 21.0181C8.46519 21.2054 8.94209 21.3928 9.419 21.5802ZM13.2683 19.1105C12.8596 19.3659 12.6892 19.3489 12.7063 18.9401C12.7063 18.6846 12.7063 18.4292 12.6722 18.1737C12.6552 18.0715 12.5189 17.8841 12.4508 17.9011C11.7354 17.9863 11.0201 18.0544 10.3899 18.4803C10.6113 18.8209 10.8668 19.0934 10.986 19.417C11.1563 19.8939 11.4118 19.9621 11.8546 19.8088C12.2123 19.6896 12.6552 19.417 12.9107 20.1494C13.0469 19.7747 13.1321 19.5192 13.2683 19.1105ZM14.5117 21.7675C14.7161 21.5972 14.9205 21.4269 15.1419 21.2225C14.7161 21.0862 14.7842 20.8989 14.9546 20.6263C15.1078 20.3709 15.3463 19.945 15.2441 19.7918C14.9035 19.2297 14.3414 18.872 13.7112 18.5995C13.626 19.0253 13.626 19.417 13.4727 19.7577C13.3024 20.1665 13.4046 20.3879 13.7623 20.6263C14.1711 20.8648 14.6139 21.1203 14.5117 21.7675ZM14.7161 23.8285C14.6991 23.7603 14.6991 23.7092 14.682 23.6411C14.9035 23.5559 15.1249 23.4878 15.3293 23.3856C15.5677 23.2664 15.9935 23.1301 15.9935 23.0109C15.9935 22.4148 15.8743 21.8016 15.7892 21.1544C15.4996 21.4269 15.3293 21.6824 15.1079 21.7845C14.5628 22.0571 14.4095 22.4488 14.4947 23.0109C14.5458 23.2834 14.5458 23.59 14.1029 23.607C14.3073 23.6922 14.5117 23.7603 14.7161 23.8285ZM13.0299 25.8383C12.8596 25.4465 12.7403 25.1229 12.57 24.8163C12.4849 24.663 12.3486 24.4757 12.2123 24.4416C11.9398 24.3565 11.6673 24.4076 11.5992 24.7823C11.7184 24.8674 11.8206 24.9526 11.9398 25.0378C11.8376 25.3443 11.7525 25.6339 11.6332 26.0086C12.1272 25.9575 12.5359 25.9064 13.0299 25.8383ZM9.70856 23.6241C10.0833 23.4537 10.3899 23.3175 10.7135 23.1982C11.0882 23.062 11.0201 22.6702 10.9008 22.5169C10.7646 22.3296 10.4239 22.2104 10.1684 22.2274C9.96404 22.2274 9.75965 22.4658 9.45307 22.6362C9.5212 22.9087 9.60636 23.2493 9.70856 23.6241ZM12.8766 22.4829C12.8596 22.1082 12.553 21.7845 12.2123 21.7845C11.8887 21.8016 11.531 22.1763 11.5481 22.5169C11.5821 22.9087 11.8036 23.1301 12.2123 23.1472C12.6041 23.1642 12.8936 22.8576 12.8766 22.4829ZM10.5942 20.5582C10.3388 20.9329 10.1514 21.2395 9.92998 21.5631C10.3217 21.7164 10.6113 21.8697 10.9008 21.9378C11.0201 21.9719 11.2415 21.9038 11.3096 21.8016C11.3777 21.7164 11.3948 21.478 11.3266 21.3758C11.1393 21.1203 10.8838 20.8818 10.5942 20.5582ZM12.3486 21.3417C12.3486 20.9329 12.3486 20.5582 12.3486 20.1154C11.9398 20.2516 11.5821 20.3709 11.1052 20.5412C11.5992 20.8307 11.6503 21.478 12.3486 21.3417ZM12.9447 20.5582C12.8085 21.0351 12.587 21.4098 13.0469 21.6824C13.4727 21.9549 13.6942 21.5631 14.0689 21.3247C13.6601 21.0522 13.3194 20.8137 12.9447 20.5582ZM14.137 23.1472C14.0859 22.7043 14.0348 22.3466 14.0007 21.9889C13.4046 22.1933 13.4046 22.1933 13.3535 22.8917C13.5749 22.9598 13.7964 23.045 14.137 23.1472ZM13.5749 23.5048C13.5579 23.4537 13.5579 23.4026 13.5409 23.3515C13.3365 23.3686 13.1321 23.3856 12.9277 23.3856C12.9447 23.5559 12.9618 23.7263 12.9958 23.8966C13.0469 23.9136 13.1151 23.9306 13.1662 23.9477C13.3024 23.8114 13.4387 23.6581 13.5749 23.5048Z" fill="#DC6E56"/>
<path d="M121.97 34.1842C122.174 35.3765 122.378 36.5858 122.6 37.7781C122.702 38.3061 122.549 38.7659 122.089 39.0555C121.731 39.2769 121.373 39.2088 121.152 38.766C120.88 38.2039 120.641 37.6248 120.471 37.0116C120.028 35.2913 119.653 33.554 119.806 31.7826C119.875 31.0332 120.13 30.2497 120.454 29.5684C120.777 28.8701 121.22 28.8871 121.561 29.5854C121.816 30.0964 122.191 29.9942 122.549 29.8239C123.826 29.1937 125.172 29.1767 126.534 29.347C126.858 29.3811 127.182 29.4492 127.454 29.6025C127.658 29.7047 127.863 29.9431 127.897 30.1475C127.914 30.3178 127.727 30.5904 127.556 30.7096C126.909 31.1184 126.194 31.2035 125.41 31.1354C124.712 31.0673 123.979 31.1013 123.315 31.2376C122.515 31.4079 122.191 32.0722 122.14 32.8387C122.106 33.2815 122.14 33.7243 122.14 34.1672C122.072 34.1672 122.021 34.1672 121.97 34.1842Z" fill="#DC6E56"/>
<path d="M15.1248 33.3496C15.1078 32.4469 15.5506 31.8848 16.1978 31.9018C17.5093 31.9189 18.5483 31.3398 19.5022 30.5052C20.3197 29.7898 21.4949 30.0283 21.9889 30.9821C22.057 31.1184 22.2103 31.2205 22.3295 31.3398C22.9086 31.7996 23.079 32.3617 22.8746 33.06C22.8405 33.1963 22.8746 33.3837 22.9257 33.5199C23.1812 34.099 23.1641 34.6441 22.7383 35.138C22.6361 35.2572 22.6021 35.4276 22.568 35.5979C22.4317 36.3473 21.6823 37.2841 20.8477 37.233C20.7115 37.216 20.5582 37.3012 20.4219 37.3693C19.5703 37.8632 18.7016 37.727 17.8841 37.3352C16.1297 36.4836 15.5676 34.8485 15.1248 33.3496ZM21.8867 36.0918C21.9889 35.9045 22.0911 35.7171 22.2273 35.4616C20.473 35.7341 18.9912 35.3935 17.6115 34.5248C17.4583 34.4226 17.2709 34.3886 17.1176 34.3205C17.1687 34.5078 17.1687 34.7463 17.2879 34.8996C17.8841 35.7171 18.7016 36.2622 19.6554 36.6028C20.5922 36.9264 20.8477 36.8413 21.3928 36.0067C21.6142 35.6831 21.7334 35.7512 21.8526 36.0578C21.8356 36.1089 21.8186 36.1429 21.8015 36.194C21.8186 36.194 21.8356 36.194 21.8356 36.2111C21.8526 36.177 21.8697 36.1429 21.8867 36.0918ZM22.568 33.4688C20.7285 34.2353 19.2807 34.1331 18.0374 33.7414C17.9181 33.7073 17.7478 33.7754 17.6115 33.7925C17.6797 33.9287 17.7308 34.099 17.85 34.1842C18.8379 34.8655 19.945 35.1891 21.1543 35.1891C21.9208 35.1721 22.057 35.0358 22.1081 34.2694C22.1081 34.1331 22.2103 33.9798 22.2614 33.8435C22.3295 33.8606 22.3806 33.8776 22.4488 33.8946C22.4828 34.1501 22.4999 34.4227 22.5339 34.6781C22.585 34.6781 22.6532 34.6611 22.7043 34.6611C22.6361 34.2694 22.6021 33.9117 22.568 33.4688ZM21.8186 31.9359C21.9037 31.9189 21.9719 31.9019 22.057 31.8848C22.2103 32.1744 22.3806 32.4469 22.585 32.8046C22.6191 32.1403 22.3125 31.7656 21.8356 31.4931C20.6944 32.5831 19.2807 32.8727 17.7648 33.043C17.9181 33.1963 18.0544 33.2985 18.2247 33.3496C19.2807 33.6903 20.3538 33.7073 21.4268 33.4348C22.1762 33.2474 22.2444 33.0601 21.8867 32.3788C21.8356 32.2425 21.8356 32.0722 21.8186 31.9359ZM17.6286 32.2936C17.85 32.8216 20.2686 32.3277 21.1884 31.4079C20.9499 31.2887 20.7285 31.1865 20.5241 31.0672C20.4219 30.9991 20.3367 30.8969 20.2345 30.8118C20.3538 30.7777 20.5071 30.6585 20.6093 30.6925C20.9329 30.8118 21.2224 30.9821 21.546 31.1354C21.3587 30.5393 20.4389 30.2838 19.9109 30.6585C19.1445 31.2035 18.395 31.7485 17.6286 32.2936ZM19.1956 36.9094C18.1566 36.4155 17.305 35.8193 16.7599 34.8825C16.5385 34.4908 16.5385 34.4908 16.0105 34.6611C16.4193 35.4616 16.8451 36.2111 17.6115 36.722C18.0714 37.0457 18.5654 37.199 19.1956 36.9094ZM17.0495 33.043C17.0665 32.6513 16.7259 32.3106 16.3171 32.2936C15.9253 32.2766 15.5506 32.6172 15.5506 33.0089C15.5336 33.4348 15.8913 33.8095 16.3 33.8095C16.6577 33.8095 17.0324 33.4348 17.0495 33.043Z" fill="#DC6E56"/>
<path d="M23.2153 26.8432C23.0279 27.4393 22.4829 27.6778 21.512 27.4564C20.9329 28.308 20.7626 28.342 19.8088 27.9162C19.4681 27.7629 19.4681 27.7629 19.1786 28.2058C19.3829 28.1547 19.5192 28.0695 19.6555 28.0866C19.7577 28.1036 19.8428 28.2228 19.945 28.308C19.928 28.3591 19.911 28.4272 19.911 28.4783C19.5873 28.4783 19.2467 28.4953 18.9231 28.4613C18.8549 28.4442 18.7357 28.2058 18.7527 28.1036C18.889 27.6267 19.2467 27.3542 19.7577 27.3371C19.5703 26.6558 19.7406 26.4344 20.6604 26.1108C20.6774 25.174 21.4098 24.9015 22.7554 25.3443C22.7894 25.3103 22.8065 25.2762 22.8405 25.2421C22.6872 25.1399 22.551 25.0037 22.3977 24.9185C21.9378 24.7312 21.8867 24.5779 22.1592 24.1691C22.8746 23.1131 24.3394 23.1471 25.0718 24.2372C25.5828 25.0377 26.2641 25.4636 27.2519 25.2762C26.2811 24.9696 25.6168 24.3224 25.0377 23.5048C24.8163 23.1982 24.3224 23.079 23.8795 22.8406C23.8625 22.1593 24.7652 21.2054 25.7361 21.0181C26.6217 20.8478 27.3541 21.1373 27.9332 21.7845C28.342 22.2444 28.7338 22.6873 29.4151 22.7554C29.8239 22.7894 29.9601 23.2323 29.8068 23.6581C29.3469 24.8674 27.5756 26.3663 25.9234 25.5828C25.5317 25.9405 25.2251 26.4003 24.7993 26.5877C24.3564 26.8432 23.8114 26.7921 23.2153 26.8432ZM23.3685 26.196C23.4367 26.213 23.5048 26.213 23.5729 26.23C23.5389 26.1959 23.4878 26.1448 23.4537 26.1108C23.3515 25.9575 23.2323 25.8212 23.1301 25.6679C23.079 25.719 23.0279 25.7872 22.9598 25.8383C23.096 25.9575 23.2323 26.0767 23.3685 26.196ZM24.3394 22.6702C24.9696 22.8065 25.3102 23.2323 25.6679 23.6751C25.9745 24.0669 26.3833 24.4246 26.8091 24.663C28.0525 25.3614 28.9722 24.5097 29.398 23.59C29.5002 23.3515 29.4491 23.1642 29.1766 23.1471C28.5124 23.1131 28.1206 22.6702 27.7459 22.1933C26.7069 21.0181 25.0888 21.2225 24.3394 22.6702ZM22.534 24.4075C22.8405 24.7652 23.1131 25.1399 23.4196 25.4465C23.6922 25.719 23.9987 25.9745 24.3394 26.1278C24.6971 26.2981 25.0037 26.0427 25.174 25.7361C25.2591 25.5998 25.2932 25.3443 25.2251 25.2251C25.0548 24.9185 24.8163 24.646 24.5949 24.3735C23.9987 23.607 22.9938 23.6751 22.534 24.4075ZM22.9427 26.5196C22.3296 25.4465 21.7845 25.2081 21.2054 25.7872C21.4439 26.0427 21.6653 26.3322 21.9038 26.5707C22.2955 26.9965 22.551 26.9624 22.9427 26.5196ZM21.3076 27.3371C20.6604 26.5025 20.439 26.4344 20.1153 26.9794C20.439 27.3371 20.7626 27.6948 21.3076 27.3371ZM22.8746 25.4465C22.8576 25.4636 22.8235 25.4636 22.8065 25.4806C22.8235 25.5317 22.8576 25.5998 22.8746 25.6509C22.9087 25.6339 22.9427 25.6168 22.9768 25.5998C22.9427 25.5487 22.9087 25.4976 22.8746 25.4465Z" fill="#DC6E56"/>
<path d="M130.605 32.2084C130.622 31.476 130.912 30.8288 131.235 30.8118C131.797 30.7777 132.002 31.2546 132.223 31.6464C133.228 33.3666 133.688 35.2913 134.165 37.1989C134.267 37.5736 134.301 37.9654 134.42 38.3401C134.557 38.817 134.318 39.0214 133.943 39.2088C133.535 39.4131 133.16 39.4131 132.904 39.0214C132.649 38.6296 132.41 38.2038 132.274 37.744C131.712 36.0407 131.184 34.3204 130.656 32.6002C130.622 32.4298 130.605 32.2595 130.605 32.2084Z" fill="#DC6E56"/>
<path d="M130.622 28.7509C130.503 28.5805 130.435 28.4954 130.384 28.4102C129.736 27.252 129.328 26.0086 129.311 24.6801C129.311 24.4246 129.464 24.0499 129.651 23.9647C129.907 23.8625 130.281 23.9307 130.554 24.0499C130.775 24.1521 130.895 24.4416 131.065 24.6631C131.218 24.4587 131.354 24.2032 131.542 23.9988C131.763 23.7603 131.985 23.5219 132.257 23.3516C132.615 23.0961 133.058 22.9428 133.449 23.2664C133.807 23.5559 133.603 23.9647 133.466 24.3054C132.819 25.9405 131.797 27.3372 130.622 28.7509Z" fill="#DC6E56"/>
<path d="M3.30434 44.063C1.72031 44.063 0.425842 42.7515 0.425842 41.1675C0.442875 39.5835 1.75438 38.272 3.32137 38.272C4.87133 38.272 6.21688 39.6346 6.19985 41.2016C6.18282 42.7685 4.88836 44.063 3.30434 44.063ZM5.75702 41.1504C5.75702 39.7878 4.6499 38.6637 3.32137 38.6637C1.97581 38.6637 0.834631 39.8219 0.834631 41.1845C0.834631 42.5471 1.9758 43.6712 3.35543 43.6542C4.701 43.6372 5.75702 42.5471 5.75702 41.1504Z" fill="#DC6E56"/>
<path d="M34.2693 17.9522C34.3715 18.2929 34.4737 18.6336 34.5588 18.9742C34.661 19.4511 34.5077 19.7066 34.0138 19.7066C32.9578 19.7407 31.8847 19.7066 30.7947 19.7066C30.7947 20.1835 30.6754 20.7626 29.909 20.8648C29.4321 20.9329 29.0744 20.7456 28.87 20.3027C28.6486 19.8258 28.7848 19.4341 29.2958 18.9572C28.9041 18.6846 28.5293 18.3951 28.1546 18.1226C27.8651 17.9012 27.8481 17.6627 28.0695 17.3902C28.3079 17.0836 28.5464 16.777 28.8019 16.4704C29.1936 16.8622 29.1766 16.8622 28.87 17.1347C28.6826 17.305 28.5294 17.4924 28.325 17.7138C29.398 18.6506 30.6073 19.1786 31.9529 19.3319C32.515 19.4 33.1111 19.3319 33.6732 19.3489C34.1501 19.3659 34.2352 19.1275 34.099 18.7357C34.0479 18.5824 33.9627 18.4462 33.9457 18.3099C33.9286 18.1737 34.0138 18.0374 34.0479 17.9012C34.133 17.9182 34.2012 17.9352 34.2693 17.9522ZM29.8068 20.456C30.1645 20.422 30.3859 20.2176 30.3689 19.8429C30.3689 19.4681 30.1474 19.2978 29.7898 19.2978C29.398 19.2978 29.2106 19.5192 29.2106 19.911C29.2106 20.2687 29.415 20.456 29.8068 20.456Z" fill="#DC6E56"/>
<path d="M12.0591 14.7331C12.0591 16.0446 11.0541 17.1006 9.77671 17.1176C8.49927 17.1347 7.39215 16.0616 7.37512 14.7671C7.37512 13.4727 8.44816 12.3826 9.7256 12.3826C11.003 12.3826 12.0591 13.4386 12.0591 14.7331ZM11.6503 14.7501C11.6503 13.6771 10.7816 12.7914 9.7256 12.7743C8.68662 12.7573 7.78391 13.66 7.76687 14.7331C7.74984 15.7721 8.65256 16.6748 9.70858 16.6748C10.8157 16.6918 11.6503 15.8572 11.6503 14.7501Z" fill="#DC6E56"/>
<path d="M27.5756 30.9139C27.5756 32.2084 26.4855 33.3155 25.2081 33.2985C23.9307 33.2815 22.8917 32.2084 22.8746 30.931C22.8746 29.6195 23.9477 28.5294 25.2251 28.5464C26.5196 28.5635 27.5756 29.6365 27.5756 30.9139ZM27.1838 30.9139C27.1838 29.8579 26.2641 28.9382 25.2251 28.9552C24.1691 28.9722 23.3004 29.875 23.3004 30.931C23.3004 32.004 24.2032 32.9068 25.2421 32.8897C26.2982 32.8897 27.1838 31.97 27.1838 30.9139Z" fill="#DC6E56"/>
<path d="M5.63775 20.4219C5.63775 21.3076 4.95645 21.9719 4.08779 21.9549C3.27023 21.9378 2.5719 21.2225 2.5719 20.4049C2.5719 19.5533 3.27024 18.8379 4.12186 18.8379C4.95645 18.8379 5.63775 19.5363 5.63775 20.4219ZM5.22896 20.4049C5.22896 19.7406 4.76909 19.2808 4.10483 19.2978C3.47462 19.2978 2.96364 19.8258 2.98068 20.439C2.99771 21.0521 3.50869 21.5802 4.12186 21.5802C4.73503 21.5631 5.22896 21.0351 5.22896 20.4049Z" fill="#DC6E56"/>
<path d="M11.5651 30.5733C10.7305 30.5733 10.0492 29.892 10.0322 29.0574C10.0151 28.2058 10.7305 27.5074 11.5821 27.5074C12.4508 27.5074 13.1491 28.2058 13.1321 29.0574C13.1321 29.909 12.4508 30.5733 11.5651 30.5733ZM11.5992 30.1645C12.2294 30.1645 12.7403 29.6706 12.7403 29.0404C12.7403 28.4272 12.2293 27.8992 11.6162 27.8992C10.9689 27.8822 10.4239 28.4272 10.4409 29.0574C10.458 29.6706 10.969 30.1645 11.5992 30.1645Z" fill="#DC6E56"/>
<path d="M21.7675 5.24597C21.2225 5.24597 20.7626 4.78609 20.7455 4.25809C20.7455 3.69601 21.2225 3.20208 21.7675 3.21912C22.2955 3.23615 22.7554 3.71306 22.7554 4.24106C22.7724 4.7861 22.3125 5.24597 21.7675 5.24597ZM21.9378 3.64493C21.3928 3.67899 21.1543 3.88337 21.1543 4.25809C21.1543 4.59874 21.3757 4.82016 21.7334 4.82016C22.1252 4.83719 22.3636 4.58171 22.3296 4.24106C22.3125 4.00261 22.0571 3.79822 21.9378 3.64493Z" fill="#DC6E56"/>
<path d="M22.074 15.2441C22.2273 15.21 22.3977 15.1759 22.551 15.1419C23.0108 15.0226 23.3855 15.1419 23.6581 15.5506C23.9135 15.9254 23.8795 16.4534 23.5729 16.777C23.2493 17.1176 22.8575 17.2198 22.4147 17.0325C21.9718 16.8451 21.8015 16.4704 21.8356 16.0105C21.8526 15.8572 21.8526 15.721 21.8697 15.5677C21.9037 15.5336 21.9378 15.4995 21.9718 15.4655C22.0059 15.3803 22.04 15.2952 22.074 15.2441ZM23.4196 16.1127C23.4026 15.738 23.2323 15.5336 22.8575 15.5166C22.4658 15.4995 22.2614 15.7039 22.2614 16.0957C22.2614 16.4534 22.4487 16.6578 22.8064 16.6748C23.2152 16.6918 23.3855 16.4704 23.4196 16.1127Z" fill="#DC6E56"/>
<path d="M6.26789 44.7273C6.81293 44.7443 7.25578 45.1872 7.25578 45.7493C7.25578 46.3113 6.7448 46.7882 6.21679 46.7712C5.68879 46.7542 5.22891 46.2432 5.24594 45.7152C5.24594 45.1701 5.72285 44.7273 6.26789 44.7273ZM6.04647 45.1531C5.94428 45.3064 5.68878 45.5108 5.65472 45.7493C5.62065 46.0899 5.87614 46.3454 6.26789 46.3284C6.62557 46.3113 6.82996 46.0899 6.82996 45.7493C6.82996 45.3575 6.59151 45.1701 6.04647 45.1531Z" fill="#DC6E56"/>
<path d="M15.4314 30.6755C15.4314 30.0964 15.8572 29.6536 16.4022 29.6536C16.9473 29.6536 17.4242 30.1134 17.4412 30.6585C17.4583 31.1865 16.9643 31.6804 16.4363 31.6804C15.8572 31.6804 15.4314 31.2376 15.4314 30.6755ZM16.9984 30.4711C16.8621 30.3689 16.6577 30.1134 16.4193 30.0794C16.0446 30.0283 15.8402 30.2838 15.8402 30.6755C15.8402 31.0502 16.0786 31.2546 16.4022 31.2546C16.7599 31.2546 16.9813 31.0332 16.9984 30.4711Z" fill="#DC6E56"/>
<path d="M14.7331 37.1478C14.7331 37.7099 14.2732 38.1528 13.7111 38.1357C13.1661 38.1187 12.7062 37.6418 12.7232 37.0967C12.7403 36.5858 13.2172 36.1089 13.7111 36.1089C14.2902 36.0918 14.7331 36.5517 14.7331 37.1478ZM14.3413 36.9605C14.188 36.8413 14.0007 36.5858 13.7622 36.5347C13.4216 36.4836 13.1661 36.722 13.1661 37.1138C13.1661 37.4714 13.3534 37.6929 13.7111 37.7099C14.1029 37.7269 14.2902 37.4885 14.3413 36.9605Z" fill="#DC6E56"/>
<path d="M22.3807 18.7698C22.3977 18.2077 22.8406 17.7649 23.4027 17.7819C23.9477 17.7989 24.4076 18.2759 24.3905 18.8209C24.3735 19.3489 23.8625 19.8258 23.3516 19.8088C22.7724 19.7917 22.3637 19.3319 22.3807 18.7698ZM23.9477 18.5995C23.8114 18.5143 23.607 18.2588 23.3686 18.2248C22.9939 18.1737 22.7895 18.4462 22.7895 18.8209C22.7895 19.1956 23.0279 19.4 23.3686 19.4C23.7263 19.4 23.9477 19.1615 23.9477 18.5995Z" fill="#DC6E56"/>
<path d="M6.796 21.5631C7.35807 21.5801 7.78389 22.006 7.76685 22.5851C7.76685 23.1471 7.30697 23.607 6.76193 23.59C6.23392 23.5729 5.73999 23.079 5.75702 22.551C5.79108 22.006 6.25096 21.5631 6.796 21.5631ZM6.77897 21.9719C6.40425 22.023 6.19985 22.1933 6.19985 22.568C6.19985 22.9598 6.43832 23.1812 6.796 23.1812C7.11962 23.1812 7.35806 22.9598 7.35806 22.5851C7.35806 22.1933 7.13665 22.006 6.77897 21.9719Z" fill="#DC6E56"/>
<path d="M19.6045 24.646C19.0424 24.646 18.5995 24.2032 18.6166 23.6411C18.6166 23.1131 19.0935 22.6362 19.6215 22.6191C20.1665 22.6191 20.6605 23.1131 20.6434 23.6751C20.6264 24.2202 20.1665 24.646 19.6045 24.646ZM19.6726 24.2372C20.0303 24.2032 20.2347 23.9647 20.2176 23.607C20.2176 23.2493 19.9451 23.045 19.6215 23.045C19.2808 23.045 19.0253 23.2664 19.0424 23.6241C19.0253 23.9988 19.2297 24.2202 19.6726 24.2372Z" fill="#DC6E56"/>
<path d="M25.9575 5.33118C25.9575 5.89325 25.5146 6.33609 24.9696 6.33609C24.4416 6.33609 23.9647 5.85919 23.9476 5.33118C23.9476 4.78614 24.4416 4.2922 24.9866 4.30924C25.5487 4.32627 25.9745 4.76911 25.9575 5.33118ZM25.5657 5.12679C25.4295 5.02459 25.208 4.76911 24.9696 4.73505C24.5949 4.66692 24.3223 4.99053 24.3905 5.33118C24.4416 5.5526 24.7311 5.85919 24.9696 5.89326C25.3102 5.96139 25.5487 5.68886 25.5657 5.12679Z" fill="#DC6E56"/>
<path d="M25.5147 9.0102C24.9356 9.0102 24.5268 8.60143 24.5268 8.02233C24.5268 7.44322 24.9696 7.00037 25.5147 7.00037C26.0427 7.00037 26.5196 7.47729 26.5366 8.02233C26.5196 8.55033 26.0597 9.0102 25.5147 9.0102ZM25.5317 8.60142C25.8553 8.55033 26.0768 8.39704 26.0768 8.02233C26.0768 7.63058 25.8553 7.39212 25.4976 7.39212C25.174 7.39212 24.9356 7.5965 24.9185 7.97122C24.9185 8.38 25.1229 8.58439 25.5317 8.60142Z" fill="#DC6E56"/>
<path d="M2.96363 34.9506C2.96363 35.5127 2.53781 35.9726 1.97574 35.9726C1.4307 35.9726 0.953796 35.4957 0.953796 34.9677C0.953796 34.4397 1.4307 33.9457 1.95871 33.9457C2.52078 33.9457 2.96363 34.3885 2.96363 34.9506ZM2.57188 35.138C2.53781 34.5759 2.28232 34.3034 1.94167 34.3886C1.72025 34.4397 1.4307 34.7462 1.39663 34.9847C1.34553 35.3253 1.61806 35.6319 1.99278 35.5468C2.23123 35.4957 2.43562 35.2402 2.57188 35.138Z" fill="#DC6E56"/>
<path d="M7.27282 42.5812C7.68159 42.5812 8.27773 43.1603 8.29476 43.5691C8.31179 43.9608 7.71565 44.557 7.30687 44.574C6.76184 44.591 6.35306 44.1823 6.33602 43.6202C6.31899 43.0581 6.72778 42.5812 7.27282 42.5812ZM7.39204 42.9219C7.30688 42.9219 7.23875 42.9219 7.15359 42.9219C7.01733 43.1433 6.7959 43.3306 6.76184 43.5691C6.71074 43.9097 6.91513 44.2163 7.27282 44.1482C7.49424 44.0971 7.81785 43.8075 7.81785 43.6031C7.83489 43.3817 7.54533 43.1603 7.39204 42.9219Z" fill="#DC6E56"/>
<path d="M15.4144 17.3902C15.8913 17.2028 16.3682 17.0155 16.8451 16.8281C16.8621 16.8792 16.8792 16.9133 16.8962 16.9644C16.4363 17.1687 15.9594 17.3902 15.4995 17.5946C15.4825 17.5264 15.4484 17.4583 15.4144 17.3902Z" fill="#DC6E56"/>
<path d="M21.1544 17.6116C20.7796 17.4413 20.422 17.2539 20.0472 17.0836C20.0643 17.0325 20.0813 16.9814 20.1154 16.9303C20.4901 17.0836 20.8648 17.2369 21.2395 17.3902C21.2054 17.4753 21.1884 17.5435 21.1544 17.6116Z" fill="#DC6E56"/>
<path d="M19.8939 16.9303C19.8598 16.9303 19.8428 16.9473 19.8087 16.9473C19.7917 16.9473 19.7917 16.9303 19.7747 16.9133C19.8087 16.9133 19.8258 16.8962 19.8598 16.8962C19.8769 16.8962 19.8769 16.9133 19.8939 16.9303Z" fill="#DC6E56"/>
<path d="M4.75202 24.8674C6.33604 24.8674 7.47722 25.7531 7.80084 27.2349C7.8349 27.3712 7.73271 27.5415 7.68161 27.6778C7.59645 27.5586 7.46019 27.4564 7.42612 27.3371C7.00031 25.8383 5.96134 25.1229 4.42841 25.3103C4.30919 25.3273 4.18995 25.3443 4.07072 25.3273C4.00259 25.3103 3.88336 25.2251 3.88336 25.157C3.88336 25.0889 3.96853 24.9696 4.03666 24.9526C4.29215 24.9185 4.54763 24.9015 4.75202 24.8674Z" fill="#DC6E56"/>
<path d="M35.8363 6.81298C35.7512 7.01736 35.7341 7.10253 35.7001 7.18769C35.3083 8.12448 34.9166 9.06127 34.4908 9.99805C34.4397 10.1343 34.2523 10.2195 34.1331 10.3217C34.1331 10.1513 34.082 9.98102 34.1501 9.82773C34.5419 8.87391 34.9506 7.9201 35.3594 6.98331C35.3935 6.89815 35.5297 6.81298 35.649 6.77892C35.7001 6.74485 35.8023 6.79594 35.8363 6.81298Z" fill="#DC6E56"/>
<path d="M36.4154 11.1052C36.3814 10.9349 36.2962 10.7986 36.3303 10.7305C36.8242 10.0662 37.3522 9.41899 37.8632 8.78879C37.8973 8.73769 38.0676 8.73769 38.1187 8.77176C38.1698 8.80582 38.1868 8.97614 38.1528 9.01021C37.6588 9.65744 37.1478 10.2877 36.6369 10.9179C36.6028 10.986 36.5347 11.02 36.4154 11.1052Z" fill="#DC6E56"/>
<path d="M38.9703 12.076C39.2087 12.3996 39.0895 12.5359 38.1698 13.0469C37.9313 12.7233 38.0335 12.587 38.9703 12.076Z" fill="#DC6E56"/>
<path d="M38.6127 15.21C37.8973 15.5506 37.8973 15.5506 37.761 15.1759C38.3912 14.8523 38.4083 14.8523 38.6127 15.21Z" fill="#DC6E56"/>
<path d="M19.5874 9.89587C19.4682 10.8667 19.3489 11.8205 19.2467 12.7914C18.8891 12.8425 18.8039 12.7403 18.838 12.4337C18.9572 11.6843 19.0253 10.9178 19.1275 10.1684C19.1445 10.0321 19.2638 9.92993 19.3489 9.79367C19.4341 9.84477 19.5193 9.86181 19.5874 9.89587Z" fill="#DC6E56"/>
<path d="M18.5825 8.77173C18.8209 8.97612 19.0253 9.14645 19.2127 9.29974C19.1275 9.36787 18.9742 9.4871 18.9742 9.47007C18.8209 9.31677 18.361 9.35083 18.5825 8.77173Z" fill="#DC6E56"/>
<path d="M21.2055 9.87886C21.2395 9.91293 21.2736 9.947 21.2906 9.96403C21.3417 10.0151 21.3928 10.0833 21.4269 10.1344C21.6994 11.003 21.5461 11.8035 21.0862 12.553C21.0351 12.553 20.967 12.553 20.9159 12.553C20.8989 12.3997 20.8648 12.2464 20.8989 12.0931C20.967 11.7184 21.1203 11.3437 21.1373 10.9689C21.1544 10.7475 21.0522 10.475 20.9329 10.2706C20.7796 9.92996 20.8478 9.8448 21.2055 9.87886Z" fill="#DC6E56"/>
<path d="M24.9695 22.4147C25.6508 21.4439 27.1667 21.5972 27.6266 22.534C27.6607 22.6021 27.6266 22.7043 27.6266 22.8065C27.5244 22.8065 27.4222 22.8235 27.3371 22.7724C27.2519 22.7383 27.2008 22.6361 27.1156 22.568C26.5706 22.04 26.0937 21.9889 25.4124 22.3466C25.2932 22.4147 25.1228 22.3977 24.9695 22.4147Z" fill="#DC6E56"/>
</svg>
